<?xml version="1.0" encoding="iso-8859-1"?>
<!-- Generator: Adobe Illustrator 19.0.0, SVG Export Plug-In . SVG Version: 6.00 Build 0)  -->
<svg version="1.1" id="Capa_1" xmlns="http://www.w3.org/2000/svg" xmlns:xlink="http://www.w3.org/1999/xlink" x="0px" y="0px"
	 viewBox="0 0 512 512" style="enable-background:new 0 0 512 512;" xml:space="preserve">
<g>
	<g>
		<g>
			<path d="M501.333,0H10.667C4.771,0,0,4.771,0,10.667v170.667C0,187.229,4.771,192,10.667,192H64v117.333
				C64,315.229,68.771,320,74.667,320c5.896,0,10.667-4.771,10.667-10.667V256h160c5.896,0,10.667-4.771,10.667-10.667
				c0-5.896-4.771-10.667-10.667-10.667h-160V192h53.333c5.896,0,10.667-4.771,10.667-10.667v-42.667
				c0-5.896-4.771-10.667-10.667-10.667c-5.896,0-10.667,4.771-10.667,10.667v32H21.333V21.333h341.333v32
				c0,5.896,4.771,10.667,10.667,10.667C379.229,64,384,59.229,384,53.333v-32h106.667v416c0,5.896,4.771,10.667,10.667,10.667
				c5.896,0,10.667-4.771,10.667-10.667V10.667C512,4.771,507.229,0,501.333,0z"/>
			<path d="M501.333,490.667H448V373.333c0-5.896-4.771-10.667-10.667-10.667H384V256h42.667v53.333
				c0,5.896,4.771,10.667,10.667,10.667c5.896,0,10.667-4.771,10.667-10.667V74.667C448,68.771,443.229,64,437.333,64
				c-5.896,0-10.667,4.771-10.667,10.667v32h-96c-5.896,0-10.667,4.771-10.667,10.667c0,5.896,4.771,10.667,10.667,10.667h96
				v106.667h-53.333c-5.896,0-10.667,4.771-10.667,10.667v128c0,5.896,4.771,10.667,10.667,10.667h53.333v106.667H21.333V384
				h117.333c5.896,0,10.667-4.771,10.667-10.667V320H192v106.667H96c-5.896,0-10.667,4.771-10.667,10.667
				C85.333,443.229,90.104,448,96,448h149.333c5.896,0,10.667-4.771,10.667-10.667c0-5.896-4.771-10.667-10.667-10.667h-32V309.333
				c0-5.896-4.771-10.667-10.667-10.667h-64c-5.896,0-10.667,4.771-10.667,10.667v53.333H21.333V245.333
				c0-5.896-4.771-10.667-10.667-10.667C4.771,234.667,0,239.438,0,245.333v256C0,507.229,4.771,512,10.667,512h490.667
				c5.896,0,10.667-4.771,10.667-10.667C512,495.438,507.229,490.667,501.333,490.667z"/>
			<path d="M266.667,362.667c-5.896,0-10.667,4.771-10.667,10.667c0,5.896,4.771,10.667,10.667,10.667h32v53.333
				c0,5.896,4.771,10.667,10.667,10.667h64c5.896,0,10.667-4.771,10.667-10.667c0-5.896-4.771-10.667-10.667-10.667H320V192h53.333
				c5.896,0,10.667-4.771,10.667-10.667c0-5.896-4.771-10.667-10.667-10.667h-160V85.333h32c5.896,0,10.667-4.771,10.667-10.667
				C256,68.771,251.229,64,245.333,64H74.667C68.771,64,64,68.771,64,74.667v42.667C64,123.229,68.771,128,74.667,128
				c5.896,0,10.667-4.771,10.667-10.667v-32H192v96c0,5.896,4.771,10.667,10.667,10.667h96v170.667H266.667z"/>
		</g>
	</g>
</g>
<g>
</g>
<g>
</g>
<g>
</g>
<g>
</g>
<g>
</g>
<g>
</g>
<g>
</g>
<g>
</g>
<g>
</g>
<g>
</g>
<g>
</g>
<g>
</g>
<g>
</g>
<g>
</g>
<g>
</g>
</svg>
